# xmcd CD database file
#
# Track frame offsets:
#	150
#	9490
#	21222
#	30172
#	43935
#	52057
#	63307
#	101370
#	113170
#	131795
#	145887
#	158377
#	172015
#	188955
#	207725
#	220575
#	238790
#	255547
#	266777
#	283092
#
# Disc length: 4093 seconds
#
# Revision: 3
# Processed by: cddbd v1.5.2PL0 Copyright (c) Steve Scherf et al.
# Submitted via: CDex 1.70beta2
#
DISCID=260ffb14
DTITLE=Cash, Johnny (USA-cty-58-86) - Columbia Records 1958-1986
DYEAR=1987
DGENRE=Country
TTITLE0=Oh, What A Dream
TTITLE1=I Still Miss Someone
TTITLE2=Pickin' Time
TTITLE3=Don't Take Your Guns To Town
TTITLE4=Five Feet High And Rising
TTITLE5=Seasons of My Heart
TTITLE6=The Legend of John Henry's Hammer
TTITLE7=Ring of Fire
TTITLE8=The Ballad of Ira Hayes
TTITLE9=Orange Blossom Special
TTITLE10=Folsom Prison Blues
TTITLE11=San Quentin #2
TTITLE12=A Boy Named Sue
TTITLE13=Sunday Morning Coming Down
TTITLE14=Man In Black
TTITLE15=One Piece At A Time
TTITLE16=(Ghost) Riders In The Sky
TTITLE17=Without Love
TTITLE18=The Baron
TTITLE19=Highway Patrolman
EXTD=1987 YEAR: 1987
EXTT0=
EXTT1=
EXTT2=
EXTT3=
EXTT4=
EXTT5=
EXTT6=
EXTT7=
EXTT8=
EXTT9=
EXTT10=
EXTT11=
EXTT12=
EXTT13=
EXTT14=
EXTT15=
EXTT16=
EXTT17=With Nick Lowe and Dave Edmunds!
EXTT18=
EXTT19=
PLAYORDER=
